<?xml version="1.0" standalone="no"?>
<!DOCTYPE svg PUBLIC "-//W3C//DTD SVG 20010904//EN"
 "http://www.w3.org/TR/2001/REC-SVG-20010904/DTD/svg10.dtd">
<svg version="1.0" xmlns="http://www.w3.org/2000/svg"
 width="8333.000000pt" height="8333.000000pt" viewBox="0 0 8333.000000 8333.000000"
 preserveAspectRatio="xMidYMid meet">

<g transform="translate(0.000000,8333.000000) scale(0.100000,-0.100000)"
fill="#000000" stroke="none">
<path d="M43010 73324 c-1231 -39 -2380 -194 -3508 -474 -4911 -1216 -8982
-4627 -11027 -9239 -96 -217 -226 -530 -301 -726 -31 -82 -58 -151 -58 -152
-1 -1 -50 9 -110 22 -651 148 -1444 217 -2116 186 -200 -10 -326 -10 -585 0
-774 29 -1544 -49 -2284 -231 -2214 -546 -4113 -1992 -5234 -3984 -569 -1012
-912 -2109 -1021 -3267 -54 -564 -45 -1212 24 -1779 170 -1394 687 -2705 1520
-3855 457 -630 1057 -1243 1685 -1721 1162 -884 2534 -1444 3975 -1623 462
-58 401 -56 2315 -55 529 1 837 26 1335 110 799 135 1543 379 2295 752 l230
114 20 -27 c978 -1346 2121 -2510 3425 -3489 118 -89 225 -169 237 -177 22
-15 19 -19 -170 -210 -217 -219 -361 -392 -512 -619 -155 -233 -264 -431 -361
-655 l-43 -100 -3363 -5 c-3197 -5 -3367 -6 -3437 -24 -466 -112 -797 -437
-920 -901 -11 -40 -83 -565 -451 -3275 -105 -773 -211 -1553 -236 -1735 -24
-181 -74 -546 -110 -810 -35 -264 -109 -808 -164 -1210 -330 -2422 -370 -2728
-370 -2830 0 -290 111 -576 312 -801 l45 -51 6 -104 c23 -362 155 -723 385
-1049 88 -125 337 -375 459 -460 278 -195 528 -301 868 -367 78 -15 178 -18
755 -23 l665 -5 51 -145 c240 -688 675 -1186 1339 -1531 521 -271 1136 -425
1930 -484 685 -50 1385 -37 1875 36 74 11 141 21 149 22 9 1 25 -41 51 -138
106 -382 259 -739 460 -1072 179 -294 369 -533 634 -798 l201 -201 34 -334
c18 -184 41 -416 51 -515 11 -99 38 -358 60 -575 100 -967 220 -2069 385
-3535 35 -313 69 -606 75 -650 6 -44 33 -273 60 -510 120 -1024 306 -2540 424
-3455 31 -233 54 -425 53 -426 -1 -1 -59 -28 -129 -62 -357 -169 -665 -393
-874 -636 -473 -547 -627 -1248 -414 -1889 69 -208 184 -416 320 -582 81 -98
254 -264 325 -312 350 -235 929 -391 1720 -462 416 -38 579 -40 3025 -32
l2375 8 100 26 c681 175 1198 592 1500 1210 149 306 207 519 255 946 70 621
90 1368 90 3351 1 2157 18 4050 46 5118 l7 252 23 0 c20 0 24 -5 24 -32 0 -18
5 -199 10 -403 23 -856 32 -1821 40 -4255 9 -2307 13 -2765 35 -3250 20 -470
60 -883 110 -1135 123 -618 474 -1151 977 -1485 212 -140 435 -240 687 -308
l136 -36 295 -3 c162 -2 1105 -6 2095 -9 990 -3 1883 -6 1985 -7 189 -2 619 9
745 19 39 3 149 12 245 20 845 71 1464 243 1807 501 95 71 263 248 346 365
168 235 276 498 329 798 20 116 17 461 -6 585 -88 486 -344 919 -736 1247
-168 141 -459 321 -665 413 -47 21 -85 44 -85 51 0 7 23 187 50 401 332 2554
737 6084 1030 8976 l61 597 208 208 c230 229 390 422 543 653 370 558 582
1128 675 1819 14 110 17 291 23 1485 6 1359 6 1360 29 1475 20 102 22 135 17
290 -3 96 -8 189 -12 206 -6 30 -5 31 115 97 539 295 1004 706 1372 1213 493
678 759 1539 759 2460 0 1371 -542 2908 -1654 4689 -166 266 -396 614 -526
794 l-100 140 0 548 c0 301 -5 602 -10 668 -76 893 -411 1698 -996 2385 -30
36 -125 136 -210 222 l-156 156 74 54 c726 525 1373 1082 2043 1759 735 743
1369 1518 1937 2366 73 111 114 163 126 163 10 0 191 31 403 70 2038 369 3211
730 3579 1101 505 511 934 1433 1239 2664 223 906 371 1903 456 3090 43 599
60 1662 35 2245 -45 1061 -173 1879 -360 2305 -100 226 -351 450 -825 737
-516 312 -1348 710 -2275 1090 -107 43 -200 85 -206 91 -6 7 -34 95 -63 197
-74 256 -281 879 -385 1155 -1151 3046 -3166 5661 -5816 7550 -1040 741 -2211
1381 -3400 1857 -1698 680 -3451 1062 -5320 1158 -200 11 -1023 20 -1210 14z
m1010 -774 c1960 -79 3777 -487 5561 -1250 2497 -1069 4709 -2812 6350 -5005
249 -333 253 -341 85 -165 -1691 1761 -3748 3139 -6041 4045 -1661 657 -3440
1062 -5220 1190 -500 35 -651 40 -1320 40 -764 0 -1099 -15 -1730 -76 -4111
-397 -7884 -2183 -10723 -5074 -273 -278 -273 -277 -33 45 1430 1918 3334
3514 5481 4594 345 174 529 260 826 389 423 183 794 324 1269 483 1393 464
2817 724 4300 783 285 12 918 12 1195 1z m-60 -1905 c1237 -27 2639 -231 3885
-565 1696 -455 3293 -1161 4730 -2090 2386 -1543 4303 -3667 5550 -6151 136
-271 194 -392 177 -374 -5 6 -49 73 -97 150 -352 561 -809 1182 -1255 1705
-461 540 -1059 1146 -1600 1621 -1242 1088 -2695 2022 -4233 2720 -1964 892
-4120 1433 -6312 1584 -464 32 -587 36 -1165 42 -605 6 -954 -2 -1430 -33
-2894 -184 -5620 -1003 -8045 -2416 -1910 -1114 -3565 -2570 -4820 -4243 -81
-107 -150 -195 -154 -195 -4 0 -33 10 -64 23 l-57 23 120 208 c558 963 1244
1893 2019 2736 170 184 580 598 784 791 1242 1174 2690 2155 4268 2892 2024
945 4219 1476 6484 1567 428 17 609 18 1215 5z m-1445 -4336 c290 -19 483 -65
500 -119 4 -12 5 -23 3 -24 -1 -1 -41 -13 -88 -26 -127 -35 -682 -218 -873
-289 -945 -347 -1929 -803 -2772 -1284 -77 -44 -153 -88 -170 -97 -467 -266
-1183 -741 -1625 -1078 -656 -500 -1294 -1074 -1749 -1572 -63 -69 -135 -147
-161 -175 -25 -27 -98 -111 -160 -185 -63 -74 -117 -137 -120 -140 -16 -15
-214 -267 -322 -410 -405 -535 -737 -1074 -1033 -1675 -92 -187 -309 -653
-351 -754 -9 -22 -18 -10 -96 136 -222 411 -500 831 -795 1201 -349 438 -800
898 -1209 1235 l-132 108 53 113 c208 441 502 895 816 1261 138 161 404 425
569 565 412 348 1131 833 1725 1162 217 121 300 164 549 290 1991 1001 4527
1664 6736 1761 175 8 563 6 705 -4z m-17135 -4129 c1847 -102 3543 -847 4859
-2135 1078 -1055 1817 -2408 2110 -3864 106 -523 144 -920 145 -1491 0 -386
-7 -533 -40 -830 -164 -1469 -743 -2830 -1690 -3970 -678 -817 -1558 -1506
-2509 -1966 -829 -400 -1678 -633 -2635 -721 -241 -22 -961 -25 -1190 -5
-1010 88 -1854 318 -2725 742 -1067 520 -2001 1294 -2722 2255 -773 1031
-1266 2244 -1432 3525 -45 350 -55 516 -55 960 0 442 9 606 55 965 167 1334
712 2623 1557 3690 358 451 826 916 1277 1268 1205 939 2673 1491 4195 1576
215 12 590 12 800 1z m5320 -1477 c247 -183 597 -479 729 -617 l35 -36 -91 0
-92 0 -39 43 c-21 23 -81 89 -133 147 -111 124 -373 389 -514 520 -55 52 -93
89 -85 83 8 -5 94 -68 190 -140z m28984 -348 c487 -213 1094 -505 1431 -688
404 -219 647 -393 703 -502 104 -206 203 -696 252 -1260 60 -694 67 -1802 15
-2675 -139 -2338 -585 -4240 -1215 -5185 -128 -191 -260 -344 -353 -407 -287
-195 -1200 -454 -2482 -704 -154 -30 -299 -58 -323 -63 l-42 -9 38 72 c22 39
81 148 132 241 52 94 160 303 241 465 1407 2815 1968 5953 1628 9105 -29 268
-83 659 -130 940 -36 215 -131 711 -145 758 -8 25 -6 24 250 -88z m-4569 65
c513 -88 957 -453 1239 -1018 143 -285 231 -583 283 -952 25 -178 25 -708 0
-895 -80 -593 -268 -1109 -565 -1545 -108 -159 -180 -248 -312 -384 -321 -331
-696 -536 -1087 -595 -107 -16 -344 -14 -454 5 -506 86 -958 451 -1237 1001
-280 552 -379 1232 -281 1933 84 605 314 1174 654 1620 95 125 316 352 435
446 271 216 606 363 900 397 108 12 315 6 425 -13z m-23342 -688 c173 -191
326 -376 474 -576 126 -168 306 -432 367 -538 l28 -48 -175 0 -175 0 -106 185
c-192 338 -421 682 -644 970 -47 61 -90 116 -95 123 -7 9 14 12 101 12 l110 0
115 -128z m1055 -1484 c116 -216 266 -531 337 -707 74 -182 165 -425 165 -441
0 -6 -77 -10 -213 -10 l-212 0 -54 163 c-102 312 -273 743 -375 946 -20 39
-47 96 -61 126 l-24 55 183 0 183 0 71 -132z m605 -1471 c53 -178 121 -459
156 -639 32 -163 81 -471 81 -507 0 -21 -4 -21 -229 -21 l-230 0 -5 43 c-56
423 -114 736 -203 1082 -19 77 -38 146 -40 153 -4 9 43 12 215 12 l219 0 36
-123z m270 -1444 c22 -271 29 -497 23 -788 -3 -176 -9 -341 -12 -367 l-7 -48
-234 0 c-220 0 -235 1 -228 18 13 34 18 734 6 952 -6 118 -14 236 -18 263 l-6
47 235 0 235 0 6 -77z m-13 -1428 c0 -51 -53 -418 -86 -595 -38 -200 -100
-477 -134 -590 l-21 -70 -220 0 c-205 0 -220 1 -215 18 51 165 148 695 186
1007 11 94 22 189 26 213 l5 42 230 0 229 0 0 -25z m18973 -425 c392 -100 671
-423 759 -880 7 -36 12 -138 12 -230 0 -132 -5 -186 -23 -270 -116 -546 -488
-948 -976 -1052 -97 -20 -294 -15 -399 10 -376 93 -656 403 -751 832 -9 42
-19 143 -22 230 -6 181 14 329 68 490 159 479 547 830 984 889 95 13 258 4
348 -19z m-19273 -1034 c0 -16 -142 -413 -194 -543 -82 -205 -210 -486 -285
-628 l-58 -110 -187 -3 c-102 -1 -186 0 -186 3 0 3 34 83 76 178 42 95 106
246 142 337 65 165 218 619 243 718 l13 52 218 0 c120 0 218 -2 218 -4z m-650
-1482 c0 -13 -139 -238 -255 -414 -181 -273 -373 -526 -588 -777 l-80 -93
-118 0 c-66 0 -119 2 -119 5 0 3 38 56 83 117 242 326 517 769 686 1106 l31
62 180 0 c99 0 180 -3 180 -6z m24612 -1056 c-855 -1674 -1962 -3136 -3337
-4407 -2580 -2385 -5876 -3827 -9360 -4095 -381 -30 -562 -37 -1035 -43 -1118
-13 -2094 75 -3195 288 l-261 50 -84 81 c-183 173 -396 280 -640 322 -74 13
-168 16 -461 16 l-368 0 -228 79 c-1785 614 -3418 1532 -4893 2750 -63 52
-133 111 -155 131 -23 19 -72 62 -110 95 -544 470 -1138 1066 -1620 1627 -243
282 -631 772 -773 974 l-22 31 58 38 c31 21 121 85 200 142 l143 105 211 -207
c2229 -2180 4917 -3765 7730 -4561 1168 -330 2257 -511 3528 -586 405 -24
1477 -14 1775 17 22 2 85 7 140 10 278 17 834 81 1215 141 2201 340 4376 1162
6375 2408 1965 1225 3747 2849 5194 4739 62 81 115 147 118 147 3 0 -63 -132
-145 -292z m-25829 -535 c-297 -294 -578 -534 -891 -762 l-113 -82 275 273
c258 257 435 448 570 616 l58 72 110 0 110 0 -119 -117z m3150 -6236 c89 -57
215 -135 279 -173 65 -38 118 -72 118 -75 0 -3 -39 -27 -87 -54 -282 -155
-723 -434 -987 -623 l-128 -92 -144 0 c-79 0 -144 3 -144 8 0 15 134 239 211
352 175 259 383 487 644 708 33 28 63 51 68 52 4 0 80 -46 170 -103z m17729
11 c193 -167 354 -338 509 -544 273 -363 471 -779 584 -1223 53 -212 101 -563
93 -695 l-3 -58 -110 123 c-162 184 -754 772 -960 955 -342 303 -736 621
-1028 829 -70 50 -127 92 -127 95 0 3 66 43 148 89 190 108 558 330 698 420
60 39 112 71 116 71 4 0 40 -28 80 -62z m-16216 -861 c159 -79 300 -148 314
-154 19 -9 -130 -12 -595 -12 l-620 -1 100 57 c162 91 479 253 496 253 8 0
145 -64 305 -143z m14492 -99 c988 -662 1906 -1520 2736 -2558 1285 -1608
2156 -3356 2390 -4800 89 -548 86 -1109 -10 -1562 -157 -746 -571 -1408 -1189
-1903 -115 -92 -422 -295 -447 -295 -2 0 11 73 29 163 114 557 138 1165 67
1705 -178 1367 -960 2657 -2198 3624 l-119 93 -492 1070 c-271 589 -504 1089
-518 1112 -36 59 -93 86 -168 81 -104 -8 -180 -84 -179 -180 1 -24 105 -420
239 -903 l238 -860 -30 -3 c-73 -8 -698 52 -1737 168 -1962 218 -2740 240
-3885 110 -1311 -150 -2440 -521 -3310 -1088 -561 -365 -1023 -828 -1344
-1348 l-63 -101 -529 -2 c-291 -1 -533 0 -537 3 -5 3 11 146 34 318 24 172
111 813 194 1423 206 1519 237 1747 335 2465 224 1640 255 1872 255 1905 0 25
4 35 15 35 9 0 107 -16 218 -35 1796 -308 3668 -311 5472 -9 1498 250 2990
720 4325 1363 69 33 126 60 128 60 2 1 38 -22 80 -51z m-11309 -847 c33 -10
80 -30 103 -44 100 -58 187 -189 209 -313 11 -64 33 107 -276 -2164 -57 -421
-149 -1100 -205 -1510 -55 -410 -110 -808 -120 -885 -11 -77 -67 -491 -125
-920 -58 -429 -112 -827 -120 -885 -16 -110 -42 -308 -280 -2060 -188 -1393
-179 -1331 -215 -1407 -38 -82 -120 -164 -202 -203 l-63 -30 -6661 0 -6661 0
-59 30 c-147 73 -244 226 -244 383 0 35 43 376 94 758 52 382 143 1045 201
1474 58 429 130 960 160 1180 30 220 86 634 125 920 39 286 88 651 110 810 42
305 102 752 300 2210 306 2254 318 2340 338 2392 49 129 175 241 308 272 23 5
2710 9 6631 10 6429 1 6593 1 6652 -18z m8256 -4800 c563 -39 1040 -83 1530
-142 1386 -166 1706 -197 2169 -206 l289 -6 136 -103 c189 -143 349 -282 537
-469 1264 -1256 1715 -2844 1284 -4519 -27 -105 -59 -222 -72 -261 l-23 -70
-70 -23 c-38 -13 -140 -41 -225 -62 -1037 -261 -2295 -179 -4035 265 -759 193
-1656 497 -2530 858 -392 162 -525 220 -525 232 0 7 15 46 34 86 50 111 157
395 211 558 36 112 45 153 40 180 -17 92 -88 157 -181 167 -71 8 -126 -23
-187 -106 -227 -311 -414 -527 -652 -754 -226 -216 -293 -269 -457 -365 -590
-345 -1357 -412 -1994 -176 -189 70 -376 171 -558 300 -69 48 -94 74 -134 135
-97 147 -171 324 -222 529 -50 200 -64 330 -64 591 0 246 10 354 49 557 27
140 23 179 -27 225 -56 52 -152 46 -201 -11 -42 -50 -125 -388 -163 -666 -28
-197 -25 -590 5 -783 25 -167 67 -333 111 -450 18 -46 28 -87 24 -91 -35 -32
-191 -48 -292 -31 -86 14 -191 63 -252 118 -92 81 -154 224 -195 446 -132 719
53 1448 530 2092 387 521 942 967 1600 1285 296 142 492 215 880 325 752 214
1375 315 2210 358 148 7 1268 -3 1420 -13z m-7436 -3528 c0 -614 3 -995 11
-1083 24 -298 106 -588 240 -856 l77 -154 -725 0 c-686 0 -724 1 -717 18 36
93 49 171 114 652 222 1636 312 2301 317 2333 l6 37 338 0 339 0 0 -947z
m5661 -1713 c63 -27 123 -55 133 -60 57 -33 809 -334 1239 -495 26 -9 49 -23
52 -31 14 -35 28 -194 24 -278 l-3 -94 -61 -68 c-112 -128 -302 -262 -456
-326 -328 -134 -693 -126 -1004 21 -98 47 -254 144 -254 159 0 4 12 43 26 87
35 107 37 229 6 332 -26 83 -98 196 -158 245 -41 34 -41 34 -29 73 37 127 172
319 296 424 40 33 73 61 74 61 0 0 52 -22 115 -50z m-3778 -111 c112 -71 287
-162 425 -219 l118 -49 -550 -1 -551 0 -72 66 c-68 62 -187 193 -180 199 2 1
41 -4 88 -11 174 -27 386 -11 540 39 41 14 81 25 89 26 8 1 50 -22 93 -50z
m5967 -718 c154 -49 559 -171 567 -171 9 0 4 -2289 -6 -2370 -15 -119 -44
-220 -94 -326 -60 -126 -115 -205 -215 -304 -138 -138 -292 -226 -491 -281
l-85 -24 -2562 -3 -2563 -2 0 745 0 745 333 0 c229 0 371 5 458 15 609 71
1155 342 1585 787 l129 134 80 -84 c409 -434 1035 -595 1598 -411 539 176 946
640 1067 1214 12 58 23 160 27 243 3 78 8 142 11 142 3 0 76 -22 161 -49z
m-10116 -429 c60 -253 197 -540 354 -745 l44 -57 -6208 2 -6208 3 -120 32
c-231 63 -478 210 -630 376 -118 128 -223 301 -276 455 l-18 52 6517 0 6517 0
28 -118z m6757 113 c0 -12 -76 -124 -138 -204 -242 -311 -589 -542 -967 -646
-249 -68 -158 -65 -2064 -65 -1675 0 -1723 1 -1823 20 -381 74 -699 299 -896
635 -37 63 -112 235 -112 256 0 5 1294 9 3000 9 1650 0 3000 -2 3000 -5z
m4896 -99 c390 -86 871 -168 1254 -216 849 -105 1598 -87 2312 56 154 30 428
99 481 119 45 18 0 -191 -77 -350 -89 -186 -269 -429 -310 -420 -160 35 -819
150 -1151 200 -889 134 -1659 212 -2437 246 l-278 12 0 200 0 199 24 -6 c13
-3 95 -21 182 -40z m369 -1142 c764 -47 1571 -143 2475 -295 391 -66 587 -102
596 -112 15 -14 -94 -503 -186 -842 -265 -969 -676 -1927 -1204 -2807 -91
-151 -105 -192 -92 -263 8 -43 68 -113 113 -132 43 -17 105 -17 150 2 40 17
156 126 304 287 55 59 99 100 99 91 0 -22 -129 -1313 -190 -1903 -126 -1210
-263 -2473 -385 -3543 -30 -263 -55 -484 -55 -491 0 -22 -375 -159 -697 -255
-1474 -438 -3355 -557 -5443 -345 -506 51 -1188 147 -1206 170 -7 9 -13 242
-17 741 -7 721 -21 1501 -32 1764 l-6 137 88 6 c834 63 1462 158 2098 317 478
120 1045 307 1108 366 81 77 74 211 -16 290 -52 45 -89 48 -293 19 -2178 -306
-4519 -337 -6824 -90 -179 19 -431 48 -560 65 -129 17 -256 31 -281 31 -120 1
-207 -119 -175 -243 25 -95 39 -103 371 -216 815 -276 1777 -462 2730 -528 44
-3 104 -8 134 -11 l54 -6 -6 -226 c-6 -209 -17 -848 -33 -1974 -6 -402 -8
-448 -23 -452 -28 -9 -325 -54 -561 -86 -1322 -177 -2657 -222 -3815 -130
-946 76 -1800 240 -2535 487 -220 74 -421 152 -425 166 -4 12 -18 136 -140
1227 -77 690 -173 1565 -215 1970 -17 162 -42 403 -55 535 -106 1016 -215
2110 -215 2151 0 27 4 24 83 -52 124 -122 268 -245 304 -260 98 -42 216 8 258
108 31 76 25 98 -116 370 -427 829 -707 1432 -905 1956 l-55 145 48 40 c103
85 353 348 435 457 194 260 364 580 457 863 l23 67 791 0 c436 0 957 -3 1160
-7 l367 -6 0 -254 c0 -412 32 -604 147 -876 254 -603 824 -1024 1485 -1096
136 -15 8540 -15 8676 0 871 94 1544 783 1622 1659 5 63 10 324 10 579 l0 464
168 -7 c92 -4 275 -14 407 -22z m-15655 -445 c0 -18 -107 -225 -157 -301 -113
-177 -290 -377 -443 -501 -449 -362 -1060 -556 -1920 -607 -197 -12 -804 -11
-1040 1 -736 39 -1314 168 -1760 395 -378 191 -662 450 -856 780 -45 76 -114
216 -114 230 0 9 360 10 3228 12 2139 1 3062 -2 3062 -9z m7538 -737 l2 -742
-1372 2 -1373 3 -96 27 c-193 53 -344 141 -485 282 -142 142 -231 294 -281
485 -25 90 -26 114 -31 388 l-4 293 1413 3 c778 1 1596 2 1819 2 l405 0 3
-743z m11752 -721 c-38 -415 -156 -832 -341 -1203 -72 -146 -203 -364 -207
-345 -8 38 69 781 84 808 104 202 321 754 426 1081 l43 136 3 -176 c2 -98 -2
-233 -8 -301z m-19940 -766 l42 -90 33 -340 c18 -187 32 -341 30 -343 -5 -5
-94 146 -161 273 -81 155 -154 325 -209 489 -42 125 -99 336 -93 341 2 1 43
18 93 37 l90 36 66 -157 c36 -86 85 -196 109 -246z m1751 -8230 c801 -275
1825 -465 2909 -539 550 -39 1467 -46 2005 -16 754 41 1423 108 2059 206 87
13 167 24 179 24 l20 0 -6 -1712 c-8 -2009 -19 -2589 -63 -3188 -19 -269 -39
-435 -69 -598 -114 -595 -537 -1067 -1091 -1216 l-92 -24 -2373 -2 c-2372 -3
-2417 -2 -2819 30 -358 30 -739 92 -980 160 -240 68 -364 133 -480 250 -345
347 -421 808 -209 1259 95 202 218 356 400 502 375 298 879 480 1644 593 439
65 814 88 1442 90 l471 1 39 31 c51 41 73 87 73 153 0 69 -32 127 -88 159 -91
51 -903 154 -1441 183 -245 13 -838 7 -1029 -11 -68 -6 -125 -10 -127 -8 -9 8
-224 1722 -365 2898 -49 415 -91 765 -94 778 -4 27 -5 27 85 -3z m16073 -7
c-3 -18 -41 -334 -85 -703 -143 -1202 -363 -2953 -373 -2962 -2 -2 -60 1 -128
7 -67 6 -279 14 -469 17 -367 6 -619 -4 -984 -38 -389 -36 -951 -116 -1004
-143 -110 -57 -131 -216 -41 -306 25 -25 52 -41 76 -46 21 -4 155 -4 297 -1
1064 22 2084 -113 2664 -354 518 -216 851 -513 1004 -894 64 -160 82 -254 83
-430 1 -181 -15 -265 -77 -412 -73 -173 -236 -373 -371 -458 -147 -92 -430
-177 -776 -234 -262 -43 -534 -71 -940 -97 -63 -4 -1166 -6 -2450 -5 -1999 2
-2344 4 -2400 17 -489 109 -899 488 -1078 995 -95 270 -141 729 -173 1749 -5
179 -13 1147 -16 2153 -5 1801 -5 1827 14 1827 10 0 91 -11 179 -25 629 -97
1325 -167 2084 -207 314 -17 1417 -17 1700 0 814 48 1437 126 2070 258 363 76
830 201 1090 292 110 39 110 39 104 0z"/>
<path d="M32025 37246 c-284 -48 -520 -172 -727 -383 -248 -254 -381 -587
-365 -917 13 -269 99 -467 282 -652 196 -198 411 -286 705 -287 212 -2 376 37
562 131 127 65 214 128 329 239 203 196 329 430 375 697 22 125 15 350 -15
460 -92 345 -354 603 -701 693 -119 30 -324 39 -445 19z"/>
<path d="M39844 29871 c-92 -56 -94 -236 -3 -303 42 -31 98 -34 138 -6 56 38
75 71 79 141 5 72 -17 129 -64 166 -35 27 -107 28 -150 2z"/>
<path d="M43155 29803 c-24 -24 -15 -96 16 -130 47 -49 66 -53 254 -53 198 0
232 8 266 64 26 42 25 112 0 126 -12 6 -116 10 -270 10 -220 0 -252 -2 -266
-17z"/>
<path d="M17647 69500 c-59 -15 -114 -47 -157 -91 -31 -33 -61 -93 -159 -322
-65 -155 -203 -480 -306 -722 -103 -242 -205 -471 -228 -510 -124 -215 -342
-423 -552 -528 -27 -13 -275 -120 -550 -237 -275 -116 -517 -223 -538 -237
-176 -121 -167 -411 17 -518 22 -13 266 -119 541 -235 275 -117 533 -230 574
-252 220 -121 424 -335 540 -564 21 -44 166 -378 321 -743 154 -365 286 -674
292 -685 27 -52 72 -95 130 -127 57 -30 71 -33 143 -33 60 0 92 5 126 21 59
26 125 86 150 134 10 21 145 336 299 701 155 365 299 699 322 743 121 239 334
452 576 574 55 28 297 131 906 389 184 77 247 125 287 214 31 71 32 183 2 249
-28 62 -87 125 -142 154 -25 12 -251 109 -501 215 -505 213 -598 257 -709 333
-91 63 -241 208 -306 297 -104 143 -89 110 -480 1035 -130 308 -247 579 -260
601 -30 51 -86 101 -141 125 -51 23 -145 32 -197 19z m223 -1470 c78 -184 164
-377 191 -429 157 -301 408 -571 695 -749 103 -64 187 -106 354 -177 74 -31
144 -62 154 -67 16 -8 -11 -23 -151 -82 -197 -84 -290 -133 -428 -227 -262
-178 -489 -435 -634 -718 -27 -53 -110 -242 -186 -421 -75 -179 -140 -328
-144 -333 -4 -4 -70 140 -146 320 -76 181 -159 371 -185 423 -95 190 -224 363
-386 520 -205 198 -388 313 -716 450 -71 29 -128 56 -128 60 0 3 53 28 118 55
332 137 514 251 720 450 161 155 294 330 385 510 35 70 155 346 289 668 23 54
45 94 49 90 4 -4 71 -159 149 -343z"/>
<path d="M12906 63144 c-32 -10 -64 -31 -95 -62 -43 -44 -62 -85 -301 -652
-155 -368 -275 -636 -305 -687 -97 -160 -221 -286 -377 -382 -45 -28 -270
-130 -533 -242 -486 -206 -501 -214 -547 -302 -16 -31 -22 -61 -22 -112 -1
-88 30 -154 95 -203 26 -19 222 -108 476 -216 238 -101 458 -198 490 -216 93
-52 185 -124 265 -208 130 -137 173 -210 314 -543 137 -324 333 -787 370 -873
39 -93 80 -139 149 -172 106 -50 241 -19 310 72 17 22 135 286 274 614 134
316 258 604 276 640 102 201 287 385 490 488 33 17 242 108 465 202 467 198
448 189 490 232 93 93 94 264 2 361 -37 39 -50 46 -505 238 -221 94 -435 188
-475 210 -195 104 -367 280 -466 474 -19 39 -145 330 -280 648 -135 318 -256
593 -269 611 -59 76 -190 113 -291 80z m235 -1264 c133 -314 169 -385 261
-516 194 -273 432 -452 816 -614 56 -24 99 -47 95 -51 -4 -4 -78 -37 -163 -73
-85 -36 -201 -94 -257 -128 -195 -117 -395 -308 -517 -491 -75 -113 -135 -238
-266 -550 -62 -147 -116 -264 -120 -260 -4 4 -62 139 -129 298 -67 160 -147
335 -177 390 -144 260 -367 486 -622 632 -48 27 -158 80 -245 118 -86 37 -156
69 -155 70 2 2 64 29 138 60 245 104 367 177 527 315 141 121 297 319 380 483
27 54 218 497 275 637 l10 25 14 -30 c8 -16 68 -158 135 -315z"/>
</g>
</svg>
